<?xml version="1.0" encoding="UTF-8"?>
<svg version="1.1" xmlns="http://www.w3.org/2000/svg" width="1557" height="1557">
<path d="M0 0 C85.14 0 170.28 0 258 0 C258 94.38 258 188.76 258 286 C294.3 286 330.6 286 368 286 C366.1891118 289.62177639 364.85730734 291.39174601 362.06820488 294.17789078 C361.24214143 295.00793633 360.41607797 295.83798188 359.5649823 296.69318032 C358.65254418 297.59979275 357.74010607 298.50640519 356.80001831 299.44049072 C355.82441199 300.41696908 354.84924524 301.39388677 353.87448132 302.37120605 C351.19271193 305.0574533 348.50473638 307.73741476 345.81572318 310.41640806 C342.91777542 313.30572997 340.02559834 316.20081795 337.13272095 319.09521484 C332.11917989 324.1098053 327.10198595 329.12071689 322.08230209 334.12915802 C314.82466184 341.37055369 307.5725415 348.61745668 300.32176246 355.86572167 C288.55809723 367.62500816 276.78997133 379.37982011 265.01904297 391.13183594 C253.58375947 402.54876527 242.15057554 413.96779042 230.72021484 425.38964844 C230.01580933 426.0935285 229.31140382 426.79740856 228.58565269 427.52261832 C225.05191877 431.0537422 221.51822614 434.5849074 217.98455405 438.11609316 C188.66277005 467.4171391 159.33374751 496.71093124 130 526 C124.11514017 521.11554957 118.71165163 515.85222553 113.31263733 510.43962097 C112.34572827 509.47386574 111.37860159 508.50832834 110.41127771 507.5429886 C107.76828063 504.90414845 105.12838999 502.26222004 102.48902404 499.61974871 C99.63679332 496.76524944 96.78167926 493.91363655 93.92694092 491.06164551 C88.34238419 485.48152886 82.76052624 479.89872018 77.17964042 474.31493237 C72.646461 469.77949336 68.112305 465.24503281 63.57745171 460.71126747 C62.93174097 460.06570996 62.28603023 459.42015246 61.62075249 458.7550326 C60.30902447 457.4436243 58.9972942 456.13221824 57.68556171 454.82081441 C45.39599045 442.53409242 33.10948247 430.24431088 20.82402419 417.95347653 C10.2730114 407.39798982 -0.28062945 396.84513667 -10.83618164 386.29418945 C-23.0927338 374.04298183 -35.34767126 361.79016279 -47.60001379 349.53474504 C-48.90472778 348.22971249 -50.20944386 346.92468204 -51.51416206 345.6196537 C-52.15613484 344.97752665 -52.79810762 344.33539959 -53.45953412 343.67381414 C-57.99320172 339.1392815 -62.52803198 334.6059136 -67.06330681 330.07298851 C-72.58220218 324.55688971 -78.09932868 319.03902915 -83.61415374 313.51886084 C-86.43008956 310.70028704 -89.24683723 307.88253697 -92.06573677 305.06692696 C-94.64154311 302.49408122 -97.21506442 299.91897347 -99.78671355 297.34197263 C-101.16756831 295.95945619 -102.55090317 294.57941828 -103.93429893 293.19944447 C-104.74161321 292.38952245 -105.54892749 291.57960042 -106.38070583 290.74513531 C-107.43671211 289.6888855 -107.43671211 289.6888855 -108.51405185 288.61129731 C-110 287 -110 287 -110 286 C-73.7 286 -37.4 286 0 286 C0 191.62 0 97.24 0 0 Z " fill="#FFFFFF" transform="translate(650,372)"/>
<path d="M0 0 C38.28 0 76.56 0 116 0 C116 51.81 116 103.62 116 157 C291.89 157 467.78 157 649 157 C649 105.19 649 53.38 649 0 C687.28 0 725.56 0 765 0 C765 90.09 765 180.18 765 273 C512.55 273 260.1 273 0 273 C0 182.91 0 92.82 0 0 Z " fill="#FFFFFF" transform="translate(397,863)"/>
</svg>
