<?xml version="1.0" encoding="UTF-8"?>
<svg version="1.1" xmlns="http://www.w3.org/2000/svg" width="800" height="800">
<path d="M0 0 C3.16756589 2.14154998 5.10760454 4.83630283 6.796875 8.21484375 C6.97187841 10.10545437 7.06412416 12.00419015 7.109375 13.90234375 C7.16544922 15.42408203 7.16544922 15.42408203 7.22265625 16.9765625 C6.0614004 25.80849918 -1.09133536 31.5137742 -7.11230469 37.46459961 C-8.12830496 38.47975257 -9.14364292 39.49556876 -10.15837097 40.51199341 C-12.90137154 43.25585126 -15.65349275 45.99038989 -18.40739727 48.72329783 C-21.2888878 51.58597706 -24.16182992 54.45720974 -27.03570557 57.32752991 C-32.47300733 62.75552427 -37.91790792 68.17582875 -43.36560845 73.59338433 C-49.56982862 79.76401982 -55.76548647 85.9432221 -61.96045446 92.12314403 C-74.698535 104.82990511 -87.44728102 117.52591607 -100.203125 130.21484375 C-99.054397 130.21573938 -99.054397 130.21573938 -97.88246238 130.21665311 C-52.5140498 130.25253139 -7.14570386 130.30914621 38.22264714 130.3927647 C43.66763688 130.4027824 49.11262693 130.41262649 54.55761719 130.42236328 C56.18364614 130.42527534 56.18364614 130.42527534 57.84252416 130.42824623 C75.40478682 130.45928432 92.9670364 130.47625193 110.52932133 130.48803797 C128.54404535 130.50044016 146.55870065 130.52792046 164.5733813 130.56945682 C175.69328963 130.59461892 186.81308403 130.60795905 197.93302123 130.60627332 C205.55390164 130.60624361 213.17466582 130.62083323 220.79550095 130.64700803 C225.19519583 130.66168488 229.59465234 130.66983057 233.9943676 130.66064644 C238.02138548 130.65238234 242.04792363 130.662451 246.07487021 130.68718037 C247.53256104 130.6928818 248.99029706 130.69182105 250.44797446 130.6833562 C252.42846494 130.67283967 254.40904374 130.68927346 256.3894825 130.70703506 C257.48991202 130.70855395 258.59034153 130.71007283 259.7241174 130.71163774 C264.69003222 131.52487409 267.79773224 134.10768555 271.109375 137.77734375 C274.43410378 142.57972977 274.51705952 147.5622327 273.796875 153.21484375 C271.76310829 158.79344682 268.79682118 161.74438426 263.41048431 164.35275698 C257.84117722 166.1897668 251.9347023 165.76787112 246.12988281 165.73382568 C244.63391781 165.73970574 243.13795883 165.7473353 241.64201069 165.75655675 C237.54401075 165.77678162 233.44635769 165.77227243 229.34833074 165.76364923 C224.92439593 165.75869968 220.50054773 165.77679513 216.0766449 165.79206848 C208.41617847 165.81537275 200.75580668 165.82412937 193.0953064 165.8229599 C182.01957968 165.82129015 170.94397908 165.84163063 159.86828601 165.8673152 C141.89803667 165.9083918 123.92781001 165.93170801 105.95751953 165.94384766 C88.50274474 165.95567711 71.04801267 165.97587572 53.59326172 166.00732422 C51.9789563 166.01022837 51.9789563 166.01022837 50.33203864 166.01319119 C44.93295374 166.02295582 39.53386915 166.03288492 34.1347847 166.04289579 C-10.64449769 166.12571192 -55.42378153 166.17970145 -100.203125 166.21484375 C-99.66382669 166.75229847 -99.12452839 167.28975319 -98.56888771 167.84349442 C-85.45214215 180.91608788 -72.34092397 193.99420132 -59.23584938 207.07849503 C-52.89822496 213.40580309 -46.55873751 219.7312233 -40.21484375 226.05224609 C-34.68607145 231.56109557 -29.1608135 237.07344143 -23.63976228 242.59002948 C-20.71579177 245.51139074 -17.79008139 248.4309607 -14.86015701 251.34635162 C-12.10293509 254.09000719 -9.35043366 256.83831056 -6.60149193 259.59026146 C-5.59140132 260.59980148 -4.57959328 261.60762648 -3.56595421 262.61360359 C-2.18263512 263.9869767 -0.80605881 265.36713152 0.57015991 266.74761963 C1.34262243 267.51823856 2.11508495 268.2888575 2.91095543 269.08282852 C7.16761494 273.89494408 7.22744438 278.04464186 7.11328125 284.30078125 C6.54321794 289.55099395 4.01799922 292.1128536 0.234375 295.52734375 C-3.12115378 297.85040213 -5.89018304 298.4265604 -9.890625 298.58984375 C-10.69886719 298.63882812 -11.50710938 298.6878125 -12.33984375 298.73828125 C-22.21772867 296.93250147 -29.58598743 287.25553079 -36.36450195 280.44165039 C-37.68037554 279.12984639 -38.9968855 277.81868047 -40.3139801 276.50810242 C-43.87433981 272.9613733 -47.42519991 269.40527579 -50.97398019 265.84696507 C-54.6943155 262.11901433 -58.42198774 258.39841146 -62.14848328 254.67662048 C-68.40200213 248.42855232 -74.64918491 242.17420133 -80.89282227 235.91625977 C-88.10816577 228.68457685 -95.33427234 221.46378392 -102.56603652 214.24852473 C-108.78149327 208.0466853 -114.99108046 201.83901451 -121.19580621 195.62643903 C-124.89884425 191.9187277 -128.60387055 188.21306427 -132.31420326 184.51265144 C-135.80040041 181.03512568 -139.27916649 177.55033252 -142.75235558 174.05981636 C-144.02724583 172.78096284 -145.30468947 171.5046489 -146.58486938 170.23109055 C-148.33329666 168.49087447 -150.07220051 166.74165782 -151.80903625 164.98988342 C-152.31622784 164.489384 -152.82341943 163.98888457 -153.34598047 163.4732185 C-157.03607473 159.72141496 -159.78108948 155.9291114 -160.6015625 150.65234375 C-160.59382812 149.84796875 -160.58609375 149.04359375 -160.578125 148.21484375 C-160.58585938 147.41046875 -160.59359375 146.60609375 -160.6015625 145.77734375 C-159.64400387 139.61892745 -155.93277157 135.50762802 -151.64372253 131.26776123 C-151.08186243 130.70051559 -150.52000232 130.13326994 -149.94111615 129.54883504 C-148.06440745 127.65786642 -146.17720524 125.77774361 -144.28979492 123.89746094 C-142.93888342 122.54084495 -141.58860316 121.18360013 -140.23890686 119.82577515 C-136.5764846 116.14541747 -132.9045679 112.47467369 -129.23031783 108.8061285 C-126.16326701 105.74216824 -123.10081774 102.67362943 -120.03833371 99.60510564 C-112.81453035 92.36725806 -105.58295436 85.13724219 -98.34643555 77.91210938 C-90.88032648 70.45748811 -83.42709803 62.99016582 -75.98013991 55.51641726 C-69.58473621 49.0988688 -63.18161461 42.68909465 -56.77219278 36.28554654 C-52.94466067 32.4613873 -49.12009298 28.63437883 -45.30284691 24.79994965 C-41.71422324 21.19587811 -38.11605355 17.60161922 -34.51029015 14.01469803 C-33.18863031 12.69672966 -31.87037146 11.37534064 -30.55578995 10.05031204 C-28.7607831 8.24213297 -26.95389498 6.44672275 -25.14347839 4.6539917 C-24.36733721 3.863443 -24.36733721 3.863443 -23.5755164 3.05692363 C-16.59792598 -3.78114065 -8.44114805 -4.59682675 0 0 Z " fill="#000000" transform="translate(295.203125,268.78515625)"/>
<path d="M0 0 C4.43021551 2.55656213 6.68907831 5.90161974 8.8125 10.5 C9.45185015 13.33159008 9.48567733 16.01967946 9.43891239 18.91431522 C9.44588 19.72680305 9.45284761 20.53929088 9.46002635 21.37639955 C9.47723972 24.09265084 9.4589215 26.80746961 9.44068909 29.5236969 C9.44573538 31.49314884 9.45296484 33.46259619 9.46218723 35.432033 C9.48112434 40.83914903 9.46886729 46.24581308 9.4514643 51.65291774 C9.43810134 57.48598237 9.45352352 63.31898038 9.46528625 69.15203857 C9.48367479 80.57681274 9.47514249 92.00141599 9.45719803 103.42618484 C9.44317871 112.7098907 9.4392778 121.99355012 9.4426403 131.27726555 C9.44287711 131.93698717 9.44311391 132.5967088 9.44335788 133.27642198 C9.44433281 135.95446667 9.44535363 138.63251133 9.44644299 141.31055597 C9.45652462 166.42923387 9.43826491 191.54782014 9.40672263 216.6664765 C9.37885899 238.98268016 9.37390001 261.29877487 9.38891602 283.61499023 C9.39273846 289.3301089 9.39653325 295.04522757 9.4000864 300.76034641 C9.40052422 301.46394675 9.40096203 302.16754709 9.40141311 302.89246865 C9.41265231 321.54099051 9.40530453 340.18950435 9.39220566 358.8380236 C9.39081709 360.84455748 9.38943638 362.85109136 9.38806724 364.85762525 C9.38670445 366.85235349 9.38532108 368.84708172 9.38393768 370.84180995 C9.37832793 380.11653514 9.38164352 389.39123279 9.38824654 398.6659565 C9.39597167 409.96554672 9.38925652 421.26501977 9.3640715 432.56458635 C9.35155791 438.3315015 9.3454526 444.09823404 9.35661316 449.86515617 C9.36663285 455.14212894 9.35824417 460.41873707 9.33503198 465.69566535 C9.32986054 467.60670291 9.33145629 469.51777298 9.34042663 471.42879648 C9.35159479 474.02347781 9.33821531 476.61692047 9.31865788 479.21152592 C9.3322761 480.32842127 9.3322761 480.32842127 9.34616944 481.46788016 C9.26475868 486.99620957 7.84549863 490.03938107 4.8125 494.5 C-0.12163024 499.07309632 -4.0770239 499.85752013 -10.6171875 499.78125 C-15.80790135 499.21326915 -19.02638097 496.75278632 -22.5625 492.9375 C-25.44769948 488.60970078 -25.3324708 484.71961829 -25.32451439 479.70371723 C-25.32849213 478.49408872 -25.32849213 478.49408872 -25.33255023 477.26002327 C-25.34026164 474.53477221 -25.3408031 471.80956607 -25.34140015 469.08430481 C-25.34541355 467.11988652 -25.34985157 465.15546907 -25.3546797 463.19105262 C-25.36666456 457.77472547 -25.37229807 452.35840723 -25.37686086 446.94206941 C-25.38280966 441.10755284 -25.39442124 435.27304696 -25.40515137 429.4385376 C-25.42969104 415.3395195 -25.44430435 401.24049786 -25.45721143 387.14146498 C-25.46092207 383.16107895 -25.4648954 379.18069328 -25.4689641 375.20030761 C-25.49419811 350.49649923 -25.51627305 325.79269038 -25.52869225 301.08887196 C-25.53161361 295.36483063 -25.53458112 289.64078933 -25.53759766 283.91674805 C-25.53796857 283.20560281 -25.53833947 282.49445758 -25.53872162 281.76176249 C-25.5508784 258.70232939 -25.58182453 235.6429726 -25.62351918 212.58357535 C-25.66629923 188.88069135 -25.69293226 165.17784766 -25.69816696 141.47492401 C-25.70125523 127.51410548 -25.71216229 113.55338273 -25.74671555 99.59259987 C-25.77467514 88.27718919 -25.78573331 76.96192356 -25.77452008 65.64648101 C-25.76932311 59.87131824 -25.77228795 54.09645945 -25.79698563 48.32134056 C-25.81940282 43.03544537 -25.8187967 37.75007384 -25.79978175 32.46416994 C-25.79697119 30.55093301 -25.80263861 28.63766114 -25.81759469 26.72448061 C-25.83668095 24.12417852 -25.8249263 21.5257477 -25.80553246 18.92548847 C-25.81838168 18.18208935 -25.8312309 17.43869022 -25.84446949 16.67276385 C-25.751159 10.98167288 -23.88135568 6.84241941 -20.1875 2.5 C-13.81463717 -2.16013447 -7.28628197 -3.06215227 0 0 Z " fill="#000000" transform="translate(658.1875,167.5)"/>
</svg>
