<?xml version="1.0" encoding="UTF-8"?>
<svg version="1.1" xmlns="http://www.w3.org/2000/svg" width="1557" height="1557">
<path d="M0 0 C5.86881417 4.87280167 11.26226334 10.11909525 16.6493988 15.51568604 C17.61218537 16.47660162 18.57518718 17.43730159 19.53838402 18.39780593 C22.16997896 21.02331283 24.79847187 23.65190579 27.42643297 26.28104925 C30.26641322 29.12123425 33.10925643 31.95855126 35.95170593 34.79626465 C41.51228521 40.34855547 47.07010034 45.90360512 52.62681603 51.45976236 C57.14062086 55.9730916 61.65521549 60.48562929 66.17036629 64.997612 C78.96960381 77.78805128 91.76675107 90.58057662 104.56121492 103.3757911 C105.25024007 104.06485621 105.93926522 104.75392132 106.64916992 105.46386719 C107.33903404 106.15377218 108.02889815 106.84367718 108.73966724 107.55448839 C119.94163552 118.75686388 131.14859433 129.95423209 142.35780322 141.14936212 C153.86532057 152.64253958 165.36912976 164.13941701 176.86904675 175.64019942 C183.32650638 182.09799164 189.78551076 188.5542215 196.24850273 195.00647736 C201.7454552 200.49435666 207.23897485 205.98564319 212.72798394 211.48146799 C215.53050337 214.28726757 218.33464424 217.0913965 221.14311218 219.89124298 C223.70996413 222.45029556 226.27222317 225.01385227 228.83078135 227.58119628 C230.20399571 228.95669842 231.58217134 230.32724192 232.96047205 231.69764733 C233.76430293 232.50607701 234.56813381 233.31450669 235.3963232 234.14743423 C236.09728963 234.84818329 236.79825605 235.54893235 237.52046388 236.27091622 C239 238 239 238 239 240 C202.7 240 166.4 240 129 240 C129 334.38 129 428.76 129 526 C43.86 526 -41.28 526 -129 526 C-129 431.62 -129 337.24 -129 240 C-165.3 240 -201.6 240 -239 240 C-232.25 232.125 -232.25 232.125 -228.62286568 228.49981785 C-227.79928822 227.67424934 -226.97571076 226.84868083 -226.1271764 225.9980951 C-224.79350555 224.6687935 -224.79350555 224.6687935 -223.43289185 223.31263733 C-222.46642178 222.34573056 -221.50017176 221.37860381 -220.53412139 220.41127771 C-217.89334941 217.76828021 -215.24948733 215.12839325 -212.60508966 212.48902404 C-209.74854619 209.6368129 -206.89490753 206.78169801 -204.04090881 203.92694092 C-199.10056242 198.98607105 -194.15839342 194.0470304 -189.21496964 189.10923958 C-182.06767603 181.9700849 -174.92315661 174.82815923 -167.77930377 167.68556171 C-156.18783315 156.09627784 -144.59413271 144.5092273 -132.99902344 132.92358398 C-121.73775843 121.67150282 -110.47754778 110.41836825 -99.21875 99.16381836 C-98.52435637 98.46968745 -97.82996274 97.77555655 -97.11452688 97.06039137 C-93.63084487 93.57801443 -90.14718354 90.0956168 -86.6635325 86.61320889 C-57.77889392 57.73893122 -28.89063369 28.86827908 0 0 Z " fill="#FFFFFF" transform="translate(779,421)"/>
<path d="M0 0 C38.28 0 76.56 0 116 0 C116 51.81 116 103.62 116 157 C291.89 157 467.78 157 649 157 C649 105.19 649 53.38 649 0 C687.28 0 725.56 0 765 0 C765 90.09 765 180.18 765 273 C512.55 273 260.1 273 0 273 C0 182.91 0 92.82 0 0 Z " fill="#FEFEFE" transform="translate(397,863)"/>
</svg>
